0.11m3min_grf.mot
version=1
nRows=27
nColumns 19
inDegrees=yes
endheader
time	1_ground_force_vx	1_ground_force_vy	1_ground_force_vz	1_ground_force_px	1_ground_force_py	1_ground_force_pz	1_ground_torque_x	1_ground_torque_y	1_ground_torque_z	2_ground_force_vx	2_ground_force_vy	2_ground_force_vz	2_ground_force_px	2_ground_force_py	2_ground_force_pz	2_ground_torque_x	2_ground_torque_y	2_ground_torque_z
            2.502500	           -8.577767	          545.196281	          -15.021017	           -0.187549	            0.006286	           -0.418121	            0.006692	           -0.425357	            0.011719	            5.045770	          552.550216	           31.205054	           -0.235781	            0.005488	           -0.657194	           -0.006488	           -0.710437	           -0.040122
            2.503000	          -10.643896	          555.833690	          -15.474708	           -0.187669	            0.006284	           -0.417587	            0.018419	           -0.961852	            0.026778	            5.616353	          563.232394	           31.430617	           -0.235887	            0.005489	           -0.657547	           -0.010146	           -1.017470	           -0.056779
            2.503500	          -13.076876	          563.948352	          -16.167589	           -0.187705	            0.006285	           -0.417945	            0.032112	           -1.384866	            0.039702	            5.533799	          573.174682	           31.888471	           -0.236057	            0.005488	           -0.657553	           -0.009533	           -0.987428	           -0.054935
            2.504000	          -16.016363	          574.950116	          -17.534689	           -0.187914	            0.006283	           -0.417278	            0.037317	           -1.339591	            0.040855	            3.766683	          582.558185	           32.438927	           -0.236092	            0.005489	           -0.657768	           -0.004056	           -0.627254	           -0.034928
            2.504500	          -18.496295	          584.147876	          -18.589666	           -0.187693	            0.006283	           -0.417297	            0.028477	           -0.899358	            0.028621	            1.063008	          591.755944	           32.472916	           -0.235899	            0.005489	           -0.657609	           -0.000596	           -0.331827	           -0.018209
            2.505000	          -20.562455	          593.704144	          -19.139706	           -0.187818	            0.006281	           -0.416968	            0.013575	           -0.391964	            0.012636	           -1.221471	          601.690114	           32.978634	           -0.235836	            0.005489	           -0.657457	            0.000733	           -0.361194	           -0.019797
            2.505500	          -22.308363	          603.081358	          -19.966451	           -0.187869	            0.006281	           -0.416850	            0.012922	           -0.349326	            0.011565	           -2.942627	          611.259829	           33.013519	           -0.235918	            0.005489	           -0.657603	            0.002687	           -0.558140	           -0.030145
            2.506000	          -23.457007	          611.555362	          -20.339981	           -0.187929	            0.006281	           -0.416946	            0.028709	           -0.748473	            0.024894	           -3.257601	          620.650127	           33.094076	           -0.235857	            0.005489	           -0.657693	            0.005340	           -1.017376	           -0.054248
            2.506500	          -24.651870	          620.210244	          -20.850191	           -0.187976	            0.006281	           -0.416907	            0.046782	           -1.176971	            0.039567	           -2.863867	          628.385925	           33.121494	           -0.235977	            0.005488	           -0.657349	            0.005551	           -1.217945	           -0.064196
            2.507000	          -26.397112	          630.307144	          -21.352853	           -0.188067	            0.006280	           -0.416650	            0.063702	           -1.521067	            0.051529	           -2.154789	          639.621474	           33.208183	           -0.236204	            0.005488	           -0.657657	            0.004254	           -1.262739	           -0.065559
            2.507500	          -28.509275	          639.503205	          -21.996037	           -0.188258	            0.006279	           -0.416439	            0.057118	           -1.281233	            0.044069	           -2.611540	          649.378831	           33.524756	           -0.236394	            0.005488	           -0.657756	            0.004162	           -1.034940	           -0.053430
            2.508000	          -29.796945	          647.439168	          -23.013527	           -0.187995	            0.006280	           -0.416598	            0.034203	           -0.743167	            0.026416	           -4.281818	          657.843414	           33.649534	           -0.236383	            0.005488	           -0.657762	            0.005598	           -0.859992	           -0.043990
            2.508500	          -31.268362	          655.555982	          -24.167356	           -0.188029	            0.006280	           -0.416650	            0.018054	           -0.378515	            0.013954	           -5.904725	          666.125136	           33.445139	           -0.236242	            0.005488	           -0.657577	            0.008354	           -0.942429	           -0.047318
            2.509000	          -31.958972	          664.931827	          -24.629870	           -0.188184	            0.006278	           -0.416315	            0.024803	           -0.516052	            0.019115	           -7.484811	          675.512328	           33.150809	           -0.236231	            0.005488	           -0.657712	            0.012547	           -1.132356	           -0.055570
            2.509500	          -32.328137	          671.964053	          -25.057374	           -0.188294	            0.006280	           -0.416689	            0.049117	           -1.020934	            0.038070	           -7.565118	          684.721401	           32.667473	           -0.236488	            0.005487	           -0.657578	            0.016234	           -1.469374	           -0.070103
            2.510000	          -32.651059	          682.419658	          -25.057601	           -0.188590	            0.006278	           -0.416221	            0.070207	           -1.467361	            0.053880	           -6.613213	          693.564408	           32.604737	           -0.236545	            0.005487	           -0.657659	            0.013786	           -1.445790	           -0.067967
            2.510500	          -32.790681	          688.910768	          -25.396281	           -0.188728	            0.006279	           -0.416409	            0.074867	           -1.572914	            0.057985	           -5.239906	          702.410945	           31.978685	           -0.236973	            0.005484	           -0.657417	            0.011218	           -1.503802	           -0.068464
            2.511000	          -32.517875	          698.105323	          -25.586822	           -0.188788	            0.006278	           -0.416268	            0.051578	           -1.107298	            0.040584	           -3.820249	          711.440515	           31.728695	           -0.237099	            0.005485	           -0.657597	            0.008245	           -1.535477	           -0.068479
            2.511500	          -32.383389	          706.039792	          -26.195136	           -0.188769	            0.006277	           -0.416050	            0.025346	           -0.552598	            0.020502	           -3.616819	          719.914085	           31.195682	           -0.237280	            0.005484	           -0.657504	            0.007696	           -1.531820	           -0.066378
            2.512000	          -31.882108	          714.334727	          -26.756957	           -0.188901	            0.006276	           -0.415915	            0.013612	           -0.304995	            0.011424	           -4.301399	          727.831031	           30.989575	           -0.237402	            0.005483	           -0.657353	            0.009723	           -1.645146	           -0.070047
            2.512500	          -31.151025	          720.646300	          -27.236139	           -0.188949	            0.006278	           -0.416217	            0.023386	           -0.541019	            0.020447	           -4.705750	          735.934623	           30.314723	           -0.237462	            0.005482	           -0.657276	            0.012259	           -1.917201	           -0.078974
            2.513000	          -30.190499	          728.218959	          -27.527056	           -0.189103	            0.006276	           -0.415923	            0.045543	           -1.098529	            0.041525	           -4.552616	          745.329915	           29.503447	           -0.237528	            0.005483	           -0.657583	            0.011554	           -1.891487	           -0.074873
            2.513500	          -29.229833	          736.872684	          -27.675767	           -0.189361	            0.006276	           -0.415835	            0.059711	           -1.505294	            0.056536	           -3.410358	          753.255846	           28.592641	           -0.237804	            0.005481	           -0.657219	            0.008393	           -1.853886	           -0.070371
            2.514000	          -27.718248	          744.263703	          -27.601974	           -0.189428	            0.006276	           -0.415810	            0.052338	           -1.405339	            0.052119	           -0.815151	          761.003444	           27.539775	           -0.237969	            0.005480	           -0.657120	            0.002115	           -1.974816	           -0.071466
            2.514500	          -26.069379	          751.114572	          -27.668409	           -0.189581	            0.006276	           -0.415929	            0.030349	           -0.874431	            0.032211	            1.070805	          770.588740	           26.822275	           -0.238390	            0.005480	           -0.657516	           -0.002775	           -1.996858	           -0.069506
            2.515000	          -24.558107	          758.325884	          -27.732957	           -0.189631	            0.006276	           -0.415895	            0.007919	           -0.244543	            0.008943	            2.539265	          779.066330	           26.476438	           -0.238536	            0.005479	           -0.657461	           -0.007066	           -2.167868	           -0.073675
            2.515500	          -23.047220	          765.177390	          -27.982474	           -0.189829	            0.006276	           -0.415952	            0.000813	           -0.026997	            0.000987	            2.840527	          786.434223	           26.267940	           -0.238541	            0.005479	           -0.657370	           -0.008719	           -2.413848	           -0.080626
